<svg xmlns="http://www.w3.org/2000/svg" viewBox="0 0 1200 1000"><g id="Layer_2" data-name="Layer 2"><g id="Layer_1-2" data-name="Layer 1"><path d="M620.53,973.5c-7.38-.55-14.78-.9-22.13-1.68-83.92-8.83-151.22-77.54-159.8-161.65-4.8-47.1-4.56-94.62-6.41-142-2.19-55.82-32.1-92.6-85.34-110.35-23.9-8-48-15.09-71.84-23.16-47-15.93-80.35-47.73-94.71-96-20.68-69.34,11.68-140.55,77.43-171.27,40.1-18.78,80.94-35.49,121.43-53.14,52.85-23,74.86-63.45,74.23-119.76-.21-19-.87-38-1.39-57q-.39-14.13-.87-28.26c19.56,0,39.11.17,58.67-.14,5.46-.09,7.41,1.27,7.4,7.08-.06,33.09,0,66.19,0,99.29,0,65.26,26.77,112.26,87.31,138.58,41.85,18.18,83.53,36.74,125.24,55.25,69.81,30.9,98.18,113.83,63.88,181-23.09,45.17-63.87,67.77-112.18,81.65-21.14,6.08-42.52,11.12-63.49,17.61-56.68,17.56-85.7,58.49-87.49,117.57-1,33.25-.1,66.54-.55,99.81-1.06,78.7-41.15,139.42-113.09,165.8-9.57,3.52-19.77,5.32-29.7,7.91a6.81,6.81,0,0,0-2,1.43Z" style="fill:#fff"/><path d="M614.9,2.46c4.74,1.55,9.52,3,14.21,4.66,77.31,27.53,116.59,94.51,105.23,174.5-6.56,46.07-7.26,92.76-10.47,139.12-3.24,46.72,19.35,77.27,61.73,94.52C821.44,431,858,445.11,892.68,463.8,946.09,493,967.5,544.56,956.4,603c-10.09,53.19-46.09,86.11-94.44,105.66-44.27,17.88-89.57,32.17-132.6,51.52-37.57,16.92-53.9,48.29-54.7,89.05-.82,41.81-.14,83.65-.26,125.47,0,4.92-1.8,6.13-6.37,6.05-16.39-.31-32.79-.19-49.18,0-7.73.09-7.91-.19-7.9-7.78,0-26.76.09-53.52,0-80.28,0-6,0-12,0-18-18.17,0-35.61.29-53-.15-11.32-.29-12.75,2.74-12.5,13.06.77,31.49.32,63,.3,94.51a29.62,29.62,0,0,1-.07,3.7H531.17c.05-.84.14-1.34.14-1.84,0-35.75.2-71.5-.1-107.24-.12-14,4.31-15.26,16.08-14.91,15,.45,30.07.11,45.8.11v-18.22c0-29.59-.27-59.19.17-88.76.19-12.33-3.15-18.36-15.06-22.35-29.82-10-60.13-18.46-89.41-29.8-41.91-16.19-68.07-47.54-77.28-91.26-14.22-67.5,21.12-131.57,84.45-154.21,36.3-13,73.39-23.1,109.18-37,33-12.81,50.09-36.91,50.89-70.82.68-29.09,5.65-58.11,5.64-87.12,0-59.43-4.76-118.51-38.21-170.91a26.37,26.37,0,0,1-3.68-9.22Z" style="fill:#fff"/><path d="M601.26,479.15a139.76,139.76,0,1,1-139.58,139.44A139.6,139.6,0,0,1,601.26,479.15Z" style="fill:#fff"/><path d="M428.18,622a11,11,0,0,1-11-11V576.38a11,11,0,0,1,11-11h9.24a11,11,0,0,1,10.64,8.14l7.12,26.47h0l7.19-26.68a10.34,10.34,0,0,1,10-7.93h8.62a11,11,0,0,1,11,11v34.58a11,11,0,0,1-11,11h-7.84a11,11,0,0,1-11-11v-17.3l-4.43,17.09a10.34,10.34,0,0,1-10,7.47h-3.28a10.35,10.35,0,0,1-10-7.54l-4.42-17.56V611a11,11,0,0,1-11,11Z" style="fill:#47b4ff"/><path d="M520.88,622a11,11,0,0,1-11-11V576.38a11,11,0,0,1,11-11h25.32a11,11,0,0,1,11,11v7.12a11,11,0,0,1-11,11H535v3.63h11.18a11,11,0,0,1,11,11V611a11,11,0,0,1-11,11Z" style="fill:#47b4ff"/><path d="M571.91,622a11,11,0,0,1-11-11V576.38a11,11,0,0,1,11-11h25.32a11,11,0,0,1,11,11v7.12a11,11,0,0,1-11,11H586.08v3.63h11.18a11,11,0,0,1,11,11V611a11,11,0,0,1-11,11Z" style="fill:#47b4ff"/><path d="M648.3,622a11,11,0,0,1-11-11V598a11,11,0,0,1,11-11h11.22v-3.4H648.3a11,11,0,0,1-11-11v-7.25a11,11,0,0,1,11-11h25.31a11,11,0,0,1,11,11V611a11,11,0,0,1-11,11Z" style="fill:#47b4ff"/><path d="M699.48,622a11,11,0,0,1-11-11V576.38a11,11,0,0,1,11-11h25.32a11,11,0,0,1,11,11v7.12a11,11,0,0,1-11,11H713.65v3.63h11.18a11,11,0,0,1,11,11V611a11,11,0,0,1-11,11Z" style="fill:#47b4ff"/><path d="M774.38,622a11,11,0,0,1-11-11v-3.47a10.68,10.68,0,0,1,2.59-7c0-.06,6.25-6.58,10.26-10.86H764.66a11,11,0,0,1-11-11v-6.87a11,11,0,0,1,11-11c.25,0,25.25,0,25.25,0a11,11,0,0,1,11,11v3.47a10.69,10.69,0,0,1-2.61,7s-6.25,6.58-10.24,10.82h11.49a11,11,0,0,1,11,11V611a11,11,0,0,1-11,11Z" style="fill:#47b4ff"/><path d="M543.18,615.33h-14.8v-37.72h14.8c0,0,7.12.31,7.12,7.09v23.55C550.3,615.33,543.18,615.33,543.18,615.33Z" style="fill:#fff"/><path d="M594.22,615.33h-14.8v-37.72h14.8c0,0,7.12.31,7.12,7.09v23.55C601.34,615.33,594.22,615.33,594.22,615.33Z" style="fill:#fff"/><path d="M721.79,615.33H707v-37.72h14.8c0,0,7.12.31,7.12,7.09v23.55C728.91,615.33,721.79,615.33,721.79,615.33Z" style="fill:#fff"/><path d="M670.6,583.69V577.6h-18.8v37.73h18.8v-6.09s.07-7.12-7.05-7.12H659v-10.39h4.52C670.53,591.74,670.6,583.69,670.6,583.69Z" style="fill:#fff"/><circle cx="600.67" cy="272.98" r="16.6" style="fill:#47b4ff"/><circle cx="600.67" cy="821.31" r="16.6" style="fill:#47b4ff"/><circle cx="600.67" cy="618.31" r="85.38" style="fill:#47b4ff;opacity:0.3"/><path d="M794.6,618.31a16.6,16.6,0,1,1-33.19,0c0-9.17,16.59-57.52,16.59-57.52S794.6,609.14,794.6,618.31Z" style="fill:#47b4ff"/><path d="M440.93,618.31a16.6,16.6,0,1,1-33.19,0c0-9.17,16.59-57.52,16.59-57.52S440.93,609.14,440.93,618.31Z" style="fill:#47b4ff"/><path d="M762.32,486.22a16.59,16.59,0,1,1-23.47-23.46c6.48-6.49,50.34-33.83,50.34-33.83S768.81,479.74,762.32,486.22Z" style="fill:#47b4ff"/><path d="M462.8,785.76a16.59,16.59,0,1,1-23.47-23.47c6.49-6.48,50.34-33.82,50.34-33.82S469.28,779.27,462.8,785.76Z" style="fill:#47b4ff"/><path d="M739.36,784.85a16.59,16.59,0,1,1,23.47-23.47c6.48-6.48,33.82-50.34,33.82-50.34S745.85,778.37,739.36,784.85Z" style="fill:#47b4ff"/><path d="M439.77,485.27a16.6,16.6,0,1,1,23.47-23.47c6.48-6.48,33.83-50.34,33.83-50.34S446.25,478.78,439.77,485.27Z" style="fill:#47b4ff"/><path d="M600.26,382c4.33,0,13.17-9.34,18.3-16.48S631,344.35,631,340s-13.95-8.92-30.87-8.92-25.74,4.59-30.87,8.92-12.44,21.21-12.44,25.54S596,382,600.26,382Z" style="fill:#47b4ff"/><path d="M600.26,854.63c4.33,0,13.17-9.34,18.3-16.48s12.44-21.21,12.44-25.54-13.95-8.92-30.87-8.92-25.74,4.59-30.87,8.92-12.44,21.21-12.44,25.54S596,854.63,600.26,854.63Z" style="fill:#47b4ff"/></g></g></svg>
