<?xml version="1.0" encoding="UTF-8"?>
<svg version="1.1" xmlns="http://www.w3.org/2000/svg" width="194" height="259">
<path d="M0 0 C2.5111455 1.27159344 5.01091268 2.56391306 7.51074219 3.85758972 C9.24970006 4.73642338 10.98986301 5.61287644 12.73120117 6.48698425 C16.15910542 8.20944286 19.58159421 9.94201445 23.00097656 11.68132019 C29.91000146 15.17925382 36.92795172 18.44305175 43.97290039 21.65763855 C55.57091132 27.08831723 55.57091132 27.08831723 57.71807861 32.71992493 C60.02130147 40.51633802 62.09877682 48.33660515 63.96777344 56.24821472 C64.25303391 57.45145386 64.53829437 58.65469299 64.8321991 59.89439392 C65.42709702 62.41471967 66.01938042 64.93566388 66.60913086 67.4571991 C67.51245921 71.30239857 68.43628859 75.142328 69.36035156 78.98258972 C69.93909705 81.44583299 70.51661398 83.90936529 71.09277344 86.37321472 C71.36974564 87.51091309 71.64671783 88.64861145 71.93208313 89.82078552 C73.52933442 96.78291456 74.89109331 103.62144887 71.56933594 110.32243347 C70.85970703 111.14421082 70.85970703 111.14421082 70.13574219 111.98258972 C69.31396484 112.97258972 69.31396484 112.97258972 68.47558594 113.98258972 C67.59580078 115.00352722 67.59580078 115.00352722 66.69824219 116.04508972 C65.52834941 117.52170613 64.36192956 119.00107805 63.19824219 120.48258972 C59.47053951 125.12261734 55.67761383 129.70756339 51.88574219 134.29508972 C44.95318072 142.6862599 38.16216138 151.18056469 31.56933594 159.84196472 C30.951875 160.65149597 30.33441406 161.46102722 29.69824219 162.29508972 C29.18261719 162.98087097 28.66699219 163.66665222 28.13574219 164.37321472 C25.72619012 167.17562854 24.0898006 168.01404697 20.40994263 168.30578613 C19.03232008 168.3207282 17.65455068 168.3245503 16.27685547 168.31974792 C15.52367035 168.32485886 14.77048523 168.32996979 13.99447632 168.3352356 C11.50242179 168.34914547 9.01064345 168.34817359 6.51855469 168.34587097 C4.78604021 168.34975758 3.05352669 168.35409217 1.3210144 168.3588562 C-2.31222622 168.36632173 -5.94536969 168.36602506 -9.57861328 168.36076355 C-14.23147236 168.35497313 -18.88393282 168.37188784 -23.536726 168.39510822 C-27.11583782 168.40985177 -30.69485383 168.41071634 -34.27399063 168.4075985 C-35.98917555 168.40811155 -37.70436586 168.41334634 -39.41952133 168.42341042 C-41.8204702 168.4357676 -44.22064525 168.42898754 -46.62158203 168.41740417 C-47.32825012 168.42504791 -48.03491821 168.43269165 -48.76300049 168.44056702 C-54.48394579 168.37965938 -57.54339383 166.74044066 -61.59082031 162.83805847 C-66.58742706 157.26492018 -71.33189874 151.58064025 -75.91137695 145.66325378 C-79.63564056 140.85666457 -83.48112637 136.16142764 -87.36425781 131.48258972 C-91.65114319 126.29831322 -95.91330248 121.09900315 -100.05175781 115.79508972 C-100.83035156 114.79993347 -101.60894531 113.80477722 -102.41113281 112.77946472 C-106.73712057 106.52287086 -106.3595246 102.35652719 -105.30175781 95.04508972 C-104.39575116 90.31549037 -103.32982004 85.62764266 -102.24707031 80.93571472 C-101.94149178 79.5968168 -101.63623041 78.25784645 -101.33126831 76.91880798 C-100.69481139 74.13100971 -100.05382889 71.34430115 -99.40966797 68.55827332 C-98.58768021 65.00098706 -97.7783303 61.44096076 -96.97245979 57.87999344 C-96.34650138 55.12140622 -95.71330162 52.36451916 -95.07799911 49.60807037 C-94.63112692 47.66264207 -94.19075475 45.71572434 -93.7505188 43.76878357 C-93.33526443 41.98597992 -93.33526443 41.98597992 -92.91162109 40.16716003 C-92.55307541 38.60690094 -92.55307541 38.60690094 -92.18728638 37.01512146 C-90.45310812 31.19874842 -88.36943444 27.4438139 -83.30175781 24.04508972 C-80.89243994 22.74621359 -78.50503471 21.5282584 -76.03613281 20.35758972 C-75.33365921 20.017957 -74.63118561 19.67832428 -73.90742493 19.32839966 C-71.62541997 18.22711971 -69.3390352 17.13537262 -67.05175781 16.04508972 C-64.67412264 14.90740721 -62.29691362 13.76883866 -59.91981506 12.6300354 C-58.3275657 11.86742496 -56.73490342 11.10567603 -55.14183044 10.3447876 C-50.34372581 8.04719435 -45.58749732 5.68499729 -40.85253906 3.25993347 C-39.74491211 2.70112488 -38.63728516 2.14231628 -37.49609375 1.5665741 C-35.47818364 0.54597846 -33.46885468 -0.49185609 -31.47070312 -1.5506134 C-19.73197618 -7.40958862 -11.32221015 -5.57534163 0 0 Z M-17.30175781 17.04508972 C-18.29175781 17.70508972 -19.28175781 18.36508972 -20.30175781 19.04508972 C-20.71604128 20.97585451 -20.71604128 20.97585451 -20.59472656 23.17790222 C-20.58505859 23.98356628 -20.57539062 24.78923035 -20.56542969 25.61930847 C-20.54029297 26.46106628 -20.51515625 27.3028241 -20.48925781 28.17008972 C-20.47572266 29.01958191 -20.4621875 29.8690741 -20.44824219 30.74430847 C-20.41284 32.84483809 -20.35903182 34.94504265 -20.30175781 37.04508972 C-21.10097656 37.11985535 -21.90019531 37.19462097 -22.72363281 37.27165222 C-32.85214939 38.48422111 -41.63320326 41.38569301 -49.17675781 48.48258972 C-51.52343665 50.62520953 -51.9958802 51.01322747 -55.30175781 51.35758972 C-58.98789787 49.74490345 -60.93188548 47.4978396 -63.62207031 44.56852722 C-65.29458403 42.76822735 -65.29458403 42.76822735 -68.23925781 42.60758972 C-68.91988281 42.75196472 -69.60050781 42.89633972 -70.30175781 43.04508972 C-71.16534404 44.82650719 -71.16534404 44.82650719 -71.30175781 47.04508972 C-69.17638179 49.87892442 -66.7425922 51.40313658 -63.67675781 53.04508972 C-59.34165949 55.61403687 -59.34165949 55.61403687 -58.30175781 59.04508972 C-59.09472656 61.16618347 -59.09472656 61.16618347 -60.48925781 63.48258972 C-65.47072197 72.69693735 -68.09340292 83.75652669 -65.30175781 94.04508972 C-66.33816406 94.21524597 -67.37457031 94.38540222 -68.44238281 94.56071472 C-69.81232251 94.80467659 -71.1821064 95.04951451 -72.55175781 95.29508972 C-73.57462891 95.45944519 -73.57462891 95.45944519 -74.61816406 95.62712097 C-79.04790793 96.44425819 -81.47154948 97.51462366 -84.30175781 101.04508972 C-83.97175781 102.03508972 -83.64175781 103.02508972 -83.30175781 104.04508972 C-79.63970962 104.19157165 -76.77936368 104.2142418 -73.30175781 102.98258972 C-69.1949648 101.6992169 -67.36459763 101.44897408 -63.30175781 103.04508972 C-61.58794168 105.85409852 -60.3052538 108.75516156 -58.96582031 111.75993347 C-55.28793056 119.02074399 -49.38401141 125.04997231 -42.30175781 129.04508972 C-42.57756635 133.54996249 -43.09744277 136.10405553 -45.92675781 139.67008972 C-48.1335969 142.40702983 -48.1335969 142.40702983 -48.11425781 145.98258972 C-47.84613281 146.66321472 -47.57800781 147.34383972 -47.30175781 148.04508972 C-45.98175781 148.37508972 -44.66175781 148.70508972 -43.30175781 149.04508972 C-39.35353447 144.50463288 -37.18511609 138.69516455 -35.30175781 133.04508972 C-34.50253906 133.26165222 -33.70332031 133.47821472 -32.87988281 133.70133972 C-20.79139234 136.76602745 -10.47914539 136.46329435 1.69824219 134.04508972 C3.94404326 137.22018779 5.84972048 140.19062893 7.32324219 143.79508972 C8.46603556 147.06335316 8.46603556 147.06335316 10.69824219 149.04508972 C12.80645015 148.72657202 12.80645015 148.72657202 14.69824219 148.04508972 C15.48607322 146.29485409 15.48607322 146.29485409 15.69824219 144.04508972 C14.50503834 141.55798251 14.50503834 141.55798251 12.76074219 139.10758972 C10.3964333 135.62306159 8.89722855 133.31484067 9.69824219 129.04508972 C11.45605469 127.27165222 11.45605469 127.27165222 13.82324219 125.67008972 C22.20288955 119.54599689 26.6058148 112.60859912 30.69824219 103.04508972 C30.69824219 102.38508972 30.69824219 101.72508972 30.69824219 101.04508972 C35.70881615 101.56342496 39.91022397 102.44908365 44.69824219 104.04508972 C47.44889451 104.21366455 47.44889451 104.21366455 49.69824219 104.04508972 C50.37972448 102.15329769 50.37972448 102.15329769 50.69824219 100.04508972 C47.93089368 97.27774122 45.45073643 97.22385513 41.63574219 96.48258972 C34.79546441 95.14231194 34.79546441 95.14231194 33.69824219 94.04508972 C33.56247389 91.98442868 33.46590316 89.92116215 33.38574219 87.85758972 C32.76665489 78.24699641 30.71849924 69.33568566 25.69824219 61.04508972 C25.69824219 58.48258972 25.69824219 58.48258972 26.69824219 56.04508972 C29.13768582 53.74117074 31.47679239 52.16084757 34.44824219 50.60758972 C36.91491161 49.21445236 36.91491161 49.21445236 37.63574219 46.48258972 C37.65636719 45.67821472 37.67699219 44.87383972 37.69824219 44.04508972 C36.70824219 43.05508972 36.70824219 43.05508972 35.69824219 42.04508972 C31.23431972 42.41630989 28.85552043 45.48295894 25.79589844 48.45133972 C23.29973082 50.34786931 21.83831956 50.97724854 18.69824219 51.04508972 C16.44433594 49.56852722 16.44433594 49.56852722 14.13574219 47.42008972 C7.43089827 41.71299044 0.09924512 38.64345303 -8.48925781 36.85758972 C-10.37644531 36.45540222 -10.37644531 36.45540222 -12.30175781 36.04508972 C-13.83442363 32.97975808 -13.40452252 29.777547 -13.36425781 26.42008972 C-13.35974609 25.71368347 -13.35523437 25.00727722 -13.35058594 24.27946472 C-13.33879656 22.53463697 -13.32086106 20.78985272 -13.30175781 19.04508972 C-14.62175781 18.38508972 -15.94175781 17.72508972 -17.30175781 17.04508972 Z " fill="#316BE0" transform="translate(113.3017578125,47.95491027832031)"/>
<path d="M0 0 C2.5 1.875 2.5 1.875 4 5 C4.31473808 9.02340174 4.23116729 12.97383637 4 17 C0.52085059 17.02887814 -2.95826831 17.04675687 -6.4375 17.0625 C-7.92733398 17.07506836 -7.92733398 17.07506836 -9.44726562 17.08789062 C-10.39150391 17.09111328 -11.33574219 17.09433594 -12.30859375 17.09765625 C-13.62041626 17.10551147 -13.62041626 17.10551147 -14.95874023 17.11352539 C-17 17 -17 17 -18 16 C-18.60990575 10.42874559 -18.41964138 5.63306252 -15 1 C-9.64870805 -2.35767338 -5.60642827 -2.60255022 0 0 Z " fill="#2F67D9" transform="translate(102,107)"/>
<path d="M0 0 C3 1 3 1 4.1328125 3.14453125 C4.46023437 4.02496094 4.78765625 4.90539062 5.125 5.8125 C5.45757812 6.68519531 5.79015625 7.55789062 6.1328125 8.45703125 C7.53188768 12.55972469 8.11978769 15.89613541 8.0625 20.25 C8.05347656 21.14203125 8.04445312 22.0340625 8.03515625 22.953125 C8.02355469 23.62859375 8.01195312 24.3040625 8 25 C1.69632197 24.41632611 -3.98660063 22.95928381 -10 21 C-11.1264377 17.17737917 -11.64524835 13.95586874 -11 10 C-7.78463496 6.0097847 -4.10964802 3.03127638 0 0 Z " fill="#316CE4" transform="translate(129,114)"/>
<path d="M0 0 C4.04318957 1.15206216 4.97025876 3.06032293 7.06640625 6.6328125 C9.87890625 12.14583943 9.87890625 12.14583943 9.87890625 15.8203125 C5.73822928 16.97578325 1.71348474 17.00416427 -2.55859375 17.0078125 C-3.30947266 17.02005859 -4.06035156 17.03230469 -4.83398438 17.04492188 C-9.05757023 17.0560659 -12.26413091 16.7602958 -16.12109375 14.8203125 C-14.97741637 12.67330457 -13.83126768 10.52768257 -12.68359375 8.3828125 C-12.35810547 7.77115234 -12.03261719 7.15949219 -11.69726562 6.52929688 C-8.47384544 0.51446127 -6.87863612 0.01793647 0 0 Z " fill="#336CE4" transform="translate(99.12109375,158.1796875)"/>
<path d="M0 0 C4.69849723 2.23231769 9.07945635 4.57378748 12 9 C12.09499391 13.22722878 11.21806124 16.9684821 10 21 C8.08594633 21.67413211 6.16863974 22.3390332 4.25 23 C3.18265625 23.37125 2.1153125 23.7425 1.015625 24.125 C-2 25 -2 25 -6 25 C-6.52100958 15.93057393 -5.32108294 7.60154706 0 0 Z " fill="#316CE4" transform="translate(62,114)"/>
<path d="M0 0 C12.75 1.875 12.75 1.875 15 3 C13.58662861 12.26001948 7.08148489 18.4103 0 24 C-3.28330144 21.07651242 -3.95866933 18.24542505 -5 14 C-3.68 13.67 -2.36 13.34 -1 13 C-0.67 8.71 -0.34 4.42 0 0 Z " fill="#2E63D1" transform="translate(119,145)"/>
<path d="M0 0 C7.49250782 0.28817338 13.71343139 2.94067284 20 7 C22.359375 9.703125 22.359375 9.703125 24 12 C22.23871656 13.36656457 20.46563912 14.71794085 18.6875 16.0625 C17.70136719 16.81660156 16.71523437 17.57070312 15.69921875 18.34765625 C14.36310547 19.16556641 14.36310547 19.16556641 13 20 C12.01 19.67 11.02 19.34 10 19 C9.33436365 17.3026273 8.67133367 15.60414053 8.02734375 13.8984375 C6.78872625 11.60958538 5.37496051 10.50613194 3.3125 8.9375 C0.05129128 6.39567555 0.05129128 6.39567555 -0.4375 2.625 C-0.293125 1.75875 -0.14875 0.8925 0 0 Z " fill="#316CE2" transform="translate(101,95)"/>
<path d="M0 0 C0.33 3.63 0.66 7.26 1 11 C2.98 11.66 4.96 12.32 7 13 C6.55090939 14.48199902 6.09043436 15.96055236 5.625 17.4375 C5.24214844 18.67306641 5.24214844 18.67306641 4.8515625 19.93359375 C4 22 4 22 2 23 C-5.08148489 17.4103 -11.58662861 11.26001948 -13 2 C-11.58461283 1.66127487 -10.16762037 1.32925376 -8.75 1 C-7.56664063 0.7215625 -7.56664063 0.7215625 -6.359375 0.4375 C-4 0 -4 0 0 0 Z " fill="#2F66D3" transform="translate(72,146)"/>
<path d="M0 0 C0.5 2.1875 0.5 2.1875 0 5 C-1.91211794 6.48868856 -3.91964248 7.62315738 -6.02734375 8.81640625 C-10.08376936 11.25026162 -11.4415412 14.68426793 -13 19 C-17.28477792 16.69281189 -20.72291137 14.67033927 -24 11 C-17.58462146 4.73042552 -9.29945597 -0.579087 0 0 Z " fill="#3060C3" transform="translate(92,95)"/>
<path d="M0 0 C1.875 1.6875 1.875 1.6875 3 4 C2.58974359 8.41025641 2.58974359 8.41025641 1 10 C0.63239269 12.32817964 0.29758419 14.6618385 0 17 C-1.65614657 17.38218767 -3.32457024 17.71395102 -5 18 C-6.81191882 16.18808118 -6.4723513 13.27648701 -6.71875 10.8125 C-6.81998043 8.9832467 -6.81998043 8.9832467 -8 8 C-7.6875 4.5 -7.6875 4.5 -7 1 C-4.4254716 -0.2872642 -2.85291355 -0.34791629 0 0 Z " fill="#2F62CA" transform="translate(98,133)"/>
<path d="M0 0 C7.49250782 0.28817338 13.71343139 2.94067284 20 7 C22.359375 9.703125 22.359375 9.703125 24 12 C22.87926138 12.83905565 21.75325453 13.67107831 20.625 14.5 C19.99851562 14.9640625 19.37203125 15.428125 18.7265625 15.90625 C17 17 17 17 15 17 C14.87625 16.21625 14.7525 15.4325 14.625 14.625 C14.20882007 11.85942178 14.20882007 11.85942178 12 10 C13.32 8.68 14.64 7.36 16 6 C11.02638346 4.24265549 6.2584002 2.67415387 1 2 C2.09898702 5.29696105 2.94597387 6.04670589 5.5625 8.1875 C6.52349609 8.98220703 6.52349609 8.98220703 7.50390625 9.79296875 C7.99761719 10.19128906 8.49132812 10.58960937 9 11 C8.67 11.66 8.34 12.32 8 13 C0.15754923 7.08315098 0.15754923 7.08315098 -0.5 2.5625 C-0.335 1.716875 -0.17 0.87125 0 0 Z " fill="#2D5CBE" transform="translate(101,95)"/>
<path d="M0 0 C3 1 3 1 4.1328125 3.14453125 C4.46023437 4.02496094 4.78765625 4.90539062 5.125 5.8125 C5.45757812 6.68519531 5.79015625 7.55789062 6.1328125 8.45703125 C7.53188768 12.55972469 8.11978769 15.89613541 8.0625 20.25 C8.05347656 21.14203125 8.04445312 22.0340625 8.03515625 22.953125 C8.02355469 23.62859375 8.01195312 24.3040625 8 25 C1.69632197 24.41632611 -3.98660063 22.95928381 -10 21 C-11.1264377 17.17737917 -11.64524835 13.95586874 -11 10 C-7.78463496 6.0097847 -4.10964802 3.03127638 0 0 Z M-5.125 6.5 C-6.49011719 7.75296875 -6.49011719 7.75296875 -7.8828125 9.03125 C-8.93082031 10.00578125 -8.93082031 10.00578125 -10 11 C-9.01 11.495 -9.01 11.495 -8 12 C-8.020625 13.11375 -8.04125 14.2275 -8.0625 15.375 C-8.26380718 18.83215921 -8.26380718 18.83215921 -7 21 C-3.9600352 21.69337792 -3.9600352 21.69337792 -0.4375 22.125 C0.76003906 22.29257813 1.95757812 22.46015625 3.19140625 22.6328125 C4.11824219 22.75398438 5.04507813 22.87515625 6 23 C6.61187085 15.16465389 5.06459719 9.1963309 2 2 C-1.26696117 2 -2.7920404 4.34649883 -5.125 6.5 Z " fill="#3056B4" transform="translate(129,114)"/>
<path d="M0 0 C4.69849723 2.23231769 9.07945635 4.57378748 12 9 C12.09499391 13.22722878 11.21806124 16.9684821 10 21 C8.08594633 21.67413211 6.16863974 22.3390332 4.25 23 C3.18265625 23.37125 2.1153125 23.7425 1.015625 24.125 C-2 25 -2 25 -6 25 C-6.52100958 15.93057393 -5.32108294 7.60154706 0 0 Z M1 3 C-3.38379159 6.7820947 -4.70973832 12.57733099 -5.1875 18.2109375 C-5.1875 19.80851469 -5.10396895 21.40580951 -5 23 C1.86523514 22.57105586 1.86523514 22.57105586 8 20 C9.61398012 15.81172159 10.43287478 12.29862434 9 8 C8.01 7.67 7.02 7.34 6 7 C6 6.34 6 5.68 6 5 C3.525 4.01 3.525 4.01 1 3 Z " fill="#2F5AB3" transform="translate(62,114)"/>
<path d="M0 0 C0.99 0.2165625 0.99 0.2165625 2 0.4375 C5.65599551 1.12299916 9.30622195 1.56175515 13 2 C9.83278689 9.99344262 9.83278689 9.99344262 7 12 C6.01 12 5.02 12 4 12 C4 12.66 4 13.32 4 14 C3.01 13.67 2.02 13.34 1 13 C1.33 12.01 1.66 11.02 2 10 C2.66 9.67 3.32 9.34 4 9 C3.525625 8.62875 3.05125 8.2575 2.5625 7.875 C0.47794198 5.37353038 0.35378509 3.18406582 0 0 Z M6 4 C6 5.65 6 7.3 6 9 C6.33 9 6.66 9 7 9 C7 7.35 7 5.7 7 4 C6.67 4 6.34 4 6 4 Z " fill="#326CE5" transform="translate(120,147)"/>
<path d="M0 0 C3.63 0 7.26 0 11 0 C11.226875 1.44375 11.45375 2.8875 11.6875 4.375 C12.1573115 6.83512825 12.1573115 6.83512825 13 9 C15.47014472 10.67613187 15.47014472 10.67613187 18 11 C18 11.33 18 11.66 18 12 C15.03 12 12.06 12 9 12 C9 11.34 9 10.68 9 10 C8.34 10 7.68 10 7 10 C5.875 7.6875 5.875 7.6875 5 5 C7 2 7 2 8 1 C5.69 1.33 3.38 1.66 1 2 C0.67 1.34 0.34 0.68 0 0 Z " fill="#326CE5" transform="translate(91,161)"/>
<path d="M0 0 C1.32 0.33 2.64 0.66 4 1 C4 2.32 4 3.64 4 5 C4.66 5 5.32 5 6 5 C6 5.66 6 6.32 6 7 C8.97 7 11.94 7 15 7 C10.60017622 9.19991189 7.33377268 9.29889434 2.5625 9.25 C1.81162109 9.25773438 1.06074219 9.26546875 0.28710938 9.2734375 C-3.92502924 9.25861907 -7.15503835 8.92630285 -11 7 C-10.34 6.34 -9.68 5.68 -9 5 C-9 5.66 -9 6.32 -9 7 C-4.545 6.505 -4.545 6.505 0 6 C0 4.02 0 2.04 0 0 Z " fill="#3062C2" transform="translate(94,166)"/>
<path d="M0 0 C0.5 2.1875 0.5 2.1875 0 5 C-1.91211794 6.48868856 -3.91964248 7.62315738 -6.02734375 8.81640625 C-10.08376936 11.25026162 -11.4415412 14.68426793 -13 19 C-14.32 18.34 -15.64 17.68 -17 17 C-16.360625 16.4225 -15.72125 15.845 -15.0625 15.25 C-12.94238316 12.93714526 -12.70307572 11.91274226 -12 9 C-11.01 8.67 -10.02 8.34 -9 8 C-8.67 7.34 -8.34 6.68 -8 6 C-6.33333333 5.33333333 -4.66666667 4.66666667 -3 4 C-2.67 3.34 -2.34 2.68 -2 2 C-3.98 2 -5.96 2 -8 2 C-4.77208445 -0.1519437 -3.71599191 -0.20086443 0 0 Z " fill="#2B57B1" transform="translate(92,95)"/>
<path d="M0 0 C2.97 0.33 5.94 0.66 9 1 C7.515 3.475 7.515 3.475 6 6 C6.99 6.33 7.98 6.66 9 7 C9.33 9.97 9.66 12.94 10 16 C10.99 16.33 11.98 16.66 13 17 C11.68 17 10.36 17 9 17 C8.77957031 16.11248047 8.77957031 16.11248047 8.5546875 15.20703125 C6.83793424 9.15892924 4.9654628 6.751683 0 3 C0 2.01 0 1.02 0 0 Z " fill="#3262CB" transform="translate(102,97)"/>
<path d="M0 0 C3.88854591 -0.75942669 7.15133055 -1.05245116 11 0 C14.1225238 3.64472062 16.08898678 7.61706183 18 12 C15 12 15 12 13 11 C11 4.88888889 11 4.88888889 11 2 C5.06 2.495 5.06 2.495 -1 3 C-0.67 2.01 -0.34 1.02 0 0 Z " fill="#2F57B2" transform="translate(91,159)"/>
<path d="M0 0 C3.61932098 0.59531479 6.54882951 1.58208528 9.828125 3.21484375 C10.70984375 3.65376953 11.5915625 4.09269531 12.5 4.54492188 C13.4075 5.00447266 14.315 5.46402344 15.25 5.9375 C16.17296875 6.39318359 17.0959375 6.84886719 18.046875 7.31835938 C18.9234375 7.75857422 19.8 8.19878906 20.703125 8.65234375 C21.50395508 9.05445068 22.30478516 9.45655762 23.12988281 9.87084961 C25 11 25 11 26 13 C23.525 12.505 23.525 12.505 21 12 C20.67 12.99 20.34 13.98 20 15 C19.896875 14.360625 19.79375 13.72125 19.6875 13.0625 C19.460625 12.381875 19.23375 11.70125 19 11 C18.01 10.67 17.02 10.34 16 10 C16 9.34 16 8.68 16 8 C14.824375 7.6596875 14.824375 7.6596875 13.625 7.3125 C8.87698375 5.59339067 4.47897448 3.31915279 0 1 C0 0.67 0 0.34 0 0 Z " fill="#3058B2" transform="translate(141,63)"/>
<path d="M0 0 C5.45593671 1.60676453 10.3302147 4.05030894 15.375 6.625 C16.20644531 7.04523437 17.03789062 7.46546875 17.89453125 7.8984375 C19.93156359 8.92866075 21.96662189 9.96258821 24 11 C22.02 11.99 22.02 11.99 20 13 C19.67 12.01 19.34 11.02 19 10 C18.01 10 17.02 10 16 10 C16 10.66 16 11.32 16 12 C15.01 11.67 14.02 11.34 13 11 C13.33 10.01 13.66 9.02 14 8 C13.01 8 12.02 8 11 8 C11 7.34 11 6.68 11 6 C9.9275 5.71125 8.855 5.4225 7.75 5.125 C4.90599636 4.27179891 2.56491017 3.4363497 0 2 C0 1.34 0 0.68 0 0 Z " fill="#2E5EBF" transform="translate(117,51)"/>
<path d="M0 0 C3.7349641 5.60244615 4.61365714 12.15038284 3.69140625 18.78125 C2.43013971 22.82870422 -0.21418414 25.87341156 -3 29 C-3 25.25763057 -1.71559825 21.71559825 1 19 C1.43041732 12.61969621 0.81578949 6.32236857 0 0 Z " fill="#315BB4" transform="translate(183,135)"/>
<path d="M0 0 C1.4540625 0.0309375 1.4540625 0.0309375 2.9375 0.0625 C2.6075 1.0525 2.2775 2.0425 1.9375 3.0625 C1.15375 3.145 0.37 3.2275 -0.4375 3.3125 C-3.20294802 3.77775923 -3.20294802 3.77775923 -4.25 6.0625 C-4.518125 6.7225 -4.78625 7.3825 -5.0625 8.0625 C-6.39583333 8.72916667 -7.72916667 9.39583333 -9.0625 10.0625 C-9.3925 8.4125 -9.7225 6.7625 -10.0625 5.0625 C-9.093125 4.423125 -8.12375 3.78375 -7.125 3.125 C-2.5625 0.05229592 -2.5625 0.05229592 0 0 Z " fill="#326CE7" transform="translate(87.0625,96.9375)"/>
<path d="M0 0 C0.3077917 3.13837611 0.27813784 4.59343628 -1.53125 7.23828125 C-2.1809375 7.92277344 -2.830625 8.60726562 -3.5 9.3125 C-4.1496875 10.00988281 -4.799375 10.70726562 -5.46875 11.42578125 C-5.9740625 11.94527344 -6.479375 12.46476563 -7 13 C-7 8.64010781 -6.20872505 4.56126986 -3.5 1.0625 C-2 0 -2 0 0 0 Z " fill="#3464CD" transform="translate(161,183)"/>
<path d="M0 0 C2.12560437 0.30836232 4.25047065 0.62181614 6.375 0.9375 C8.15003906 1.19853516 8.15003906 1.19853516 9.9609375 1.46484375 C13 2 13 2 15 3 C14.67 4.65 14.34 6.3 14 8 C13.67 7.01 13.34 6.02 13 5 C11.948125 4.87625 10.89625 4.7525 9.8125 4.625 C6.54041229 4.08859218 3.99463924 3.36119965 1 2 C1 4.97 1 7.94 1 11 C0.67 11 0.34 11 0 11 C0 7.37 0 3.74 0 0 Z " fill="#2D59B1" transform="translate(119,145)"/>
<path d="M0 0 C3 1 3 1 4.4375 2.625 C5.13149104 5.55518438 4.5861461 6.19944816 3.125 8.75 C2.073125 10.35875 2.073125 10.35875 1 12 C0.34 10.68 -0.32 9.36 -1 8 C-0.34 8 0.32 8 1 8 C-0.32 6.35 -1.64 4.7 -3 3 C-2.01 2.01 -1.02 1.02 0 0 Z " fill="#2F61C5" transform="translate(51,102)"/>
<path d="M0 0 C0 0.33 0 0.66 0 1 C-2.31 1.33 -4.62 1.66 -7 2 C-5.76538658 5.5842599 -5.76538658 5.5842599 -3.4375 8.5 C-1.51406665 10.50706089 -1.36531415 12.29667526 -1 15 C-4.67229009 11.62546316 -7.08948843 8.62544907 -9 4 C-9 3.01 -9 2.02 -9 1 C-5.8035914 -0.06546953 -3.34252724 -0.07427838 0 0 Z " fill="#2C5CB0" transform="translate(68,147)"/>
<path d="M0 0 C-5.33333333 2.66666667 -10.66666667 5.33333333 -16 8 C-15.375 5.625 -15.375 5.625 -14 3 C-11.125 1.8125 -11.125 1.8125 -8 1 C-7.29875 0.608125 -6.5975 0.21625 -5.875 -0.1875 C-3.50401958 -1.21492485 -2.42158082 -0.70838775 0 0 Z " fill="#2C5EB9" transform="translate(80,88)"/>
<path d="M0 0 C0.5775 0.515625 1.155 1.03125 1.75 1.5625 C3.87827523 3.26505193 3.87827523 3.26505193 6.25 2.6875 C6.8275 2.460625 7.405 2.23375 8 2 C8.33 2.66 8.66 3.32 9 4 C8.34 4 7.68 4 7 4 C7.66 6.31 8.32 8.62 9 11 C5.43279004 8.32459253 2.58873576 5.64340588 0 2 C0 1.34 0 0.68 0 0 Z " fill="#2C59C4" transform="translate(23,174)"/>
<path d="M0 0 C0.33 0.66 0.66 1.32 1 2 C0.06553465 4.03144641 -0.93224776 6.03533587 -2 8 C-1.01 8.33 -0.02 8.66 1 9 C1 9.66 1 10.32 1 11 C-0.65 11 -2.3 11 -4 11 C-3.48964169 6.6109185 -2.47785723 3.66291938 0 0 Z " fill="#2D60CA" transform="translate(89,162)"/>
<path d="M0 0 C0.33 0.66 0.66 1.32 1 2 C-0.07353741 3.4655595 -1.1592554 4.92220152 -2.25 6.375 C-2.85328125 7.18710938 -3.4565625 7.99921875 -4.078125 8.8359375 C-5.97181904 10.96826778 -7.38328518 11.94636704 -10 13 C-10 12.01 -10 11.02 -10 10 C-9.278125 9.5875 -8.55625 9.175 -7.8125 8.75 C-4.04439657 6.40540231 -2.43644811 3.68947856 0 0 Z " fill="#2B58B1" transform="translate(131,153)"/>
<path d="M0 0 C6.52307692 0.61538462 6.52307692 0.61538462 8.9375 2.5625 C9.288125 3.036875 9.63875 3.51125 10 4 C8.35 3.67 6.7 3.34 5 3 C4.67 3.99 4.34 4.98 4 6 C3.896875 5.360625 3.79375 4.72125 3.6875 4.0625 C3.460625 3.381875 3.23375 2.70125 3 2 C2.01 1.67 1.02 1.34 0 1 C0 0.67 0 0.34 0 0 Z " fill="#3162C8" transform="translate(157,72)"/>
<path d="M0 0 C1.8125 0.0625 1.8125 0.0625 4 1 C5.75 4.5625 5.75 4.5625 7 8 C4.625 7.375 4.625 7.375 2 6 C0.6875 2.875 0.6875 2.875 0 0 Z " fill="#2461BC" transform="translate(102,164)"/>
<path d="M0 0 C0.99 0.33 1.98 0.66 3 1 C2.01 3.97 1.02 6.94 0 10 C-1.32 9.34 -2.64 8.68 -4 8 C-3.34 7.4225 -2.68 6.845 -2 6.25 C0.44290923 4.00346023 0.44290923 4.00346023 0 0 Z " fill="#2958C1" transform="translate(79,104)"/>
<path d="M0 0 C0.268125 0.598125 0.53625 1.19625 0.8125 1.8125 C1.98493467 3.97224808 3.19369282 5.35790256 5 7 C1 7 1 7 -1.25 5 C-1.8275 4.34 -2.405 3.68 -3 3 C-2.01 2.01 -1.02 1.02 0 0 Z " fill="#316EE2" transform="translate(73,103)"/>
<path d="M0 0 C2.475 0.495 2.475 0.495 5 1 C7 6.625 7 6.625 7 10 C5.82739389 8.71372289 4.6620717 7.42080217 3.5 6.125 C2.8503125 5.40570313 2.200625 4.68640625 1.53125 3.9453125 C0 2 0 2 0 0 Z " fill="#2D5DB7" transform="translate(40,195)"/>
<path d="M0 0 C1.65 0 3.3 0 5 0 C5.33 0.99 5.66 1.98 6 3 C5.01 3.66 4.02 4.32 3 5 C2.01 4.34 1.02 3.68 0 3 C0 2.01 0 1.02 0 0 Z " fill="#326DE5" transform="translate(102,97)"/>
<path d="M0 0 C1.7074998 1.28062485 3.37373596 2.61767557 5 4 C5 4.66 5 5.32 5 6 C5.99 6.33 6.98 6.66 8 7 C7.67 7.99 7.34 8.98 7 10 C5.82739389 8.71372289 4.6620717 7.42080217 3.5 6.125 C2.8503125 5.40570313 2.200625 4.68640625 1.53125 3.9453125 C0 2 0 2 0 0 Z " fill="#3159AE" transform="translate(15,164)"/>
<path d="M0 0 C1.0625 1.875 1.0625 1.875 2 4 C1.67 4.66 1.34 5.32 1 6 C-0.32 5.67 -1.64 5.34 -3 5 C-2.625 3.0625 -2.625 3.0625 -2 1 C-1.34 0.67 -0.68 0.34 0 0 Z " fill="#346CE8" transform="translate(119,158)"/>
<path d="M0 0 C0.33 1.98 0.66 3.96 1 6 C0.34 4.68 -0.32 3.36 -1 2 C-2.65 2 -4.3 2 -6 2 C-6 1.34 -6 0.68 -6 0 C-3 -1 -3 -1 0 0 Z " fill="#3064C8" transform="translate(120,188)"/>
<path d="M0 0 C0.33 0.99 0.66 1.98 1 3 C-0.65 4.32 -2.3 5.64 -4 7 C-3.6875 4.625 -3.6875 4.625 -3 2 C-2.01 1.34 -1.02 0.68 0 0 Z " fill="#3768EB" transform="translate(28,151)"/>
</svg>
